<?xml version="1.0" encoding="utf-8" ?>
<svg xmlns="http://www.w3.org/2000/svg" xmlns:xlink="http://www.w3.org/1999/xlink" width="20" height="20" viewBox="0 0 20 20">
	<defs>
		<clipPath id="clipPath1868516361">
			<path d="M0 0L20 0L20 20L0 20L0 0Z" fill-rule="nonzero" transform="matrix(1 0 0 1 0 0)"/>
		</clipPath>
	</defs>
	<g clip-path="url(#clipPath1868516361)">
		<defs>
			<clipPath id="clipPath5509730817">
				<path d="M0 0L20 0L20 20L0 20L0 0Z" fill-rule="nonzero" transform="matrix(1 0 0 1 -0 -0)"/>
			</clipPath>
		</defs>
		<g clip-path="url(#clipPath5509730817)">
			<path d="M-0.0389865 -0.623783C-0.383489 -0.602251 -0.645314 -0.305516 -0.623783 0.0389865L0.157467 12.539Q0.197245 13.3139 0.72012 13.8375Q1.25691 14.375 2.03125 14.375L9.21875 14.375Q9.99443 14.375 10.5295 13.8363Q11.045 13.3173 11.0926 12.5381L11.8738 0.0389864C11.8953 -0.305516 11.6335 -0.602251 11.289 -0.623783C10.9445 -0.645314 10.6477 -0.383489 10.6262 -0.0389865L9.84491 12.4619Q9.82604 12.7707 9.64259 12.9554Q9.47416 13.125 9.21875 13.125L2.03125 13.125Q1.77516 13.125 1.60459 12.9542Q1.42096 12.7703 1.40503 12.461L0.623783 -0.0389864C0.602251 -0.383489 0.305516 -0.645314 -0.0389865 -0.623783Z" fill-rule="evenodd" transform="matrix(1 0 0 1 4.375 4.375)" fill="rgb(255, 77, 77)"/>
			<path d="M13.75 0L0 0L13.75 0Z" fill-rule="nonzero" transform="matrix(1 0 0 1 3.125 4.375)" fill="rgb(255, 77, 77)"/>
			<path d="M-0.625 0C-0.625 0.345175 -0.345175 0.625 0 0.625L13.75 0.625C14.0952 0.625 14.375 0.345175 14.375 0C14.375 -0.345175 14.0952 -0.625 13.75 -0.625L0 -0.625C-0.345175 -0.625 -0.625 -0.345175 -0.625 0Z" fill-rule="evenodd" transform="matrix(1 0 0 1 3.125 4.375)" fill="rgb(255, 77, 77)"/>
			<path d="M-0.3125 0.937505L-0.3125 2.5C-0.3125 2.84518 -0.032675 3.125 0.3125 3.125C0.657675 3.125 0.9375 2.84518 0.9375 2.5L0.9375 0.937505Q0.93712 0.806833 1.02822 0.715728Q1.11933 0.624625 1.24817 0.625002L4.375 0.625005Q4.50567 0.624625 4.59678 0.715729Q4.68788 0.806834 4.6875 0.935677L4.6875 2.5C4.6875 2.84518 4.96733 3.125 5.3125 3.125C5.65767 3.125 5.9375 2.84518 5.9375 2.5L5.9375 0.939333Q5.93939 0.290583 5.48066 -0.168154Q5.02192 -0.626893 4.375 -0.624995L1.25183 -0.624993Q0.603079 -0.626893 0.144339 -0.168153Q-0.314397 0.290585 -0.3125 0.937505ZM-0.0223071 4.3754C-0.367262 4.38772 -0.636922 4.67736 -0.624602 5.02231L-0.312102 13.7723C-0.299782 14.1173 -0.0101479 14.3869 0.334807 14.3746C0.679762 14.3623 0.949422 14.0727 0.937102 13.7277L0.624602 4.9777C0.612282 4.63274 0.322648 4.36308 -0.0223071 4.3754ZM5.64731 4.3754C5.30235 4.36308 5.01272 4.63274 5.0004 4.9777L4.6879 13.7277C4.67558 14.0727 4.94524 14.3623 5.29019 14.3746C5.63515 14.3869 5.92478 14.1173 5.9371 13.7723L6.2496 5.02231C6.26192 4.67736 5.99226 4.38772 5.64731 4.3754ZM2.8125 4.375C2.46732 4.375 2.1875 4.65483 2.1875 5L2.1875 13.75C2.1875 14.0952 2.46732 14.375 2.8125 14.375C3.15768 14.375 3.4375 14.0952 3.4375 13.75L3.4375 5C3.4375 4.65483 3.15768 4.375 2.8125 4.375Z" fill-rule="evenodd" transform="matrix(1 0 0 1 7.1875 1.875)" fill="rgb(255, 77, 77)"/>
		</g>
	</g>
</svg>
