<?xml version="1.0" encoding="utf-8" ?>
<svg xmlns="http://www.w3.org/2000/svg" xmlns:xlink="http://www.w3.org/1999/xlink" width="24" height="24" viewBox="0 0 24 24">
	<defs>
		<clipPath id="clipPath5117510243">
			<path d="M0 0L24 0L24 24L0 24L0 0Z" fill-rule="nonzero" transform="matrix(1 0 0 1 0 0)"/>
		</clipPath>
	</defs>
	<g clip-path="url(#clipPath5117510243)">
		<defs>
			<clipPath id="clipPath2798466890">
				<path d="M0 0L24 0L24 24L0 24L0 0Z" fill-rule="nonzero" transform="matrix(1 0 0 1 -0 -0)"/>
			</clipPath>
		</defs>
		<g clip-path="url(#clipPath2798466890)">
			<path d="M9.75 0C4.37391 0 0 4.37391 0 9.75C0 15.1261 4.37391 19.5 9.75 19.5C15.1261 19.5 19.5 15.1261 19.5 9.75C19.5 4.37391 15.1261 0 9.75 0ZM14.8242 6.48234L8.52422 13.9823C8.4543 14.0656 8.37026 14.1306 8.27207 14.1773C8.17389 14.2241 8.07044 14.2483 7.96172 14.25L7.94906 14.25C7.84276 14.25 7.74107 14.2283 7.64398 14.185C7.54689 14.1417 7.46281 14.0806 7.39172 14.0016L4.69172 11.0016C4.5473 10.8484 4.47941 10.6666 4.48805 10.4563C4.49668 10.246 4.57924 10.0704 4.73572 9.92956C4.8922 9.78874 5.07548 9.72509 5.28556 9.7386C5.49564 9.75212 5.66926 9.83873 5.80641 9.99844L7.92938 12.3572L13.6758 5.51766C13.8099 5.36261 13.9791 5.27695 14.1835 5.26066C14.3878 5.24438 14.5685 5.30216 14.7254 5.43401C14.8824 5.56586 14.9705 5.73384 14.9897 5.93793C15.009 6.14202 14.9538 6.32349 14.8242 6.48234Z" fill-rule="nonzero" transform="matrix(1 0 0 1 2.25 2.25)" fill="rgb(76, 175, 80)"/>
		</g>
	</g>
</svg>
